<svg xmlns="http://www.w3.org/2000/svg" xmlns:xlink="http://www.w3.org/1999/xlink" version="1.1" x="0px" y="0px" viewBox="0 0 100 125" style="enable-background:new 0 0 100 100;" xml:space="preserve"><g><path d="M53.23,11.35c0.02-0.04,0.03-0.07,0.03-0.08c0,0.01-0.01,0.02-0.01,0.03C53.24,11.31,53.24,11.33,53.23,11.35z"/><path d="M81.93,74.25c-6.99-8.95-16.89-15.44-27.85-18.37c-0.07-3.48-0.12-6.97-0.19-10.45c5.25-1.02,10.43-2.64,15.53-4.23   c0.45-0.14,0.98-0.54,1.05-1.05c0.42-3.12,0.66-7.28,3.62-9.12c1.64-1.01,0.13-3.61-1.51-2.59c-3.59,2.22-4.36,6.29-4.9,10.16   c-4.56,1.42-9.17,2.83-13.85,3.78c-0.03-1.84-0.17-10.25-0.2-12.62c2.05-0.29,5.3-1.45,7.44-2.65c2.2-1.24,3.88-2.99,5.2-5.12   c1.27-2.05,2.3-4.38,4.36-5.78c2-1.36,4.48-1.85,6.84-1.31c1.88,0.43,2.68-2.46,0.8-2.89c-5.3-1.21-10.16,1.27-12.98,5.76   c-1.37,2.19-2.45,4.55-4.64,6.07c-2.12,1.47-4.61,2.23-7.06,2.93c-0.03-2.36-0.05-4.71-0.07-7.07c-0.01-2.03,0.34-4.48-1.02-6   c0.26-1.4,1.23-4.55,3.11-5.71c0.67-0.41,0.55-1.62,0-2.12c-0.66-0.61-1.46-0.52-2.12,0c-1.23,0.96-2.14,2.36-2.78,3.77   c-0.27,0.6-0.52,1.22-0.73,1.85c-0.21-0.63-0.45-1.25-0.73-1.85c-0.64-1.41-1.55-2.8-2.78-3.77c-0.33-0.26-0.63-0.44-1.06-0.44   c-0.37,0-0.81,0.16-1.06,0.44c-0.49,0.54-0.73,1.7,0,2.12c2.18,1.26,2.93,4.33,3.09,5.59c-0.72,0.75-1.17,1.8-1.19,2.9   c-0.06,3.4-0.11,6.81-0.15,10.21c-2.31-0.66-4.62-1.4-6.63-2.75c-2.27-1.53-3.38-3.92-4.79-6.18c-2.81-4.5-7.68-6.97-12.98-5.76   c-1.88,0.43-1.08,3.32,0.8,2.89c2.31-0.53,4.71-0.08,6.69,1.21c2.15,1.39,3.2,3.78,4.51,5.88c1.29,2.08,2.91,3.8,5.04,5.03   c2.17,1.26,6.11,2.65,7.32,2.75c-0.05,4.19-0.09,8.38-0.15,12.57c-4.6-0.96-9.14-2.34-13.62-3.74c-0.54-3.87-1.31-7.94-4.9-10.16   c-1.65-1.02-3.15,1.57-1.51,2.59c2.97,1.84,3.2,6,3.62,9.12c0.07,0.51,0.6,0.91,1.05,1.05c5.04,1.57,10.14,3.16,15.32,4.19   c-0.03,1.9-0.15,8.93-0.18,10.55c-10.88,2.96-20.69,9.42-27.64,18.31c-1.17,1.5,0.93,3.64,2.12,2.12   c6.46-8.28,15.39-14.36,25.46-17.3c-0.2,10.27-0.49,20.55-0.42,30.82c0.02,3.39,2.41,4.81,5,4.66c2.87-0.16,4.36-2.75,4.35-5.35   c-0.03-5.38-0.34-25.51-0.43-30.2c10.16,2.92,19.16,9.02,25.67,17.36C81,77.89,83.11,75.76,81.93,74.25z M49.27,16.83   c-0.01-0.76,0.07-1.34,0.65-1.31c0.47,0.02,0.69,0.33,0.7,1.32c0.01,1.01-0.02,4.82-0.05,6.54c-0.45,0-0.9,0-1.34,0   C49.23,22.28,49.29,18.25,49.27,16.83z M50.45,91.49c-1.09,0.4-2.17-0.5-2.22-1.58c0.09-20.82,0.97-63.16,0.97-63.51   c0.47,0,0.94,0,1.41,0c0.02,1.47,0.95,59.45,0.96,62.13C51.57,89.62,51.74,91.01,50.45,91.49z"/></g></svg>